<svg xmlns="http://www.w3.org/2000/svg" version="1.1" xmlns:xlink="http://www.w3.org/1999/xlink" xmlns:svgjs="http://svgjs.dev/svgjs" viewBox="0 0 800 800"><defs><filter id="uuunion-blur" x="-100%" y="-100%" width="400%" height="400%" color-interpolation-filters="sRGB">
        <feGaussianBlur in="SourceGraphic" stdDeviation="7.5 0" result="blur"></feGaussianBlur>
        <feDropShadow stdDeviation="12.307692307692308" in="blur" dx="10" dy="10" flood-color="hsl(265, 55%, 30%)" flood-opacity="0.4" x="0%" y="0%" width="100%" height="100%"></feDropShadow>
      </filter><filter id="uuunion-blur2" x="-100%" y="-100%" width="400%" height="400%" color-interpolation-filters="sRGB">
        <feGaussianBlur in="SourceGraphic" stdDeviation="7.5 0" result="blur"></feGaussianBlur>
        <feDropShadow stdDeviation="12.307692307692308" in="blur" dx="-10" dy="-10" flood-color="hsl(265, 55%, 30%)" flood-opacity="0.4" x="0%" y="0%" width="100%" height="100%"></feDropShadow>
      </filter><linearGradient gradientTransform="rotate(151, 0.5, 0.5)" x1="50%" y1="0%" x2="50%" y2="100%" id="uuunion-grad"><stop stop-color="hsl(265, 55%, 60%)" offset="10%"></stop><stop stop-color="hsl(265, 55%, 30%)" offset="90%"></stop></linearGradient><linearGradient gradientTransform="rotate(135, 0.5, 0.5)" x1="50%" y1="0%" x2="50%" y2="100%" id="uuunion-grad2"><stop stop-color="hsl(265, 55%, 60%)" offset="25%"></stop><stop stop-color="hsl(265, 55%, 30%)" offset="100%"></stop></linearGradient><linearGradient gradientTransform="rotate(333, 0.5, 0.5)" x1="50%" y1="0%" x2="50%" y2="100%" id="uuunion-grad3"><stop stop-color="hsl(265, 55%, 60%)" offset="0%"></stop><stop stop-color="hsl(265, 55%, 30%)" offset="75%"></stop></linearGradient></defs><path d="M-76.6 -79.07Q-62.42 -77.4 -48.25 -75.92 -34.07 -74.72 -19.9 -73.91 -5.72 -73.52 8.45 -73.6 22.62 -74.13 36.8 -75.08 50.97 -76.39 65.15 -77.95 79.32 -79.65 93.5 -81.38 107.67 -83.01 121.85 -84.43 136.02 -85.53 150.2 -86.23 164.38 -86.49 178.55 -86.29 192.73 -85.64 206.9 -84.58 221.08 -83.2 235.25 -81.59 249.43 -79.87 263.6 -78.15 277.78 -76.57 291.95 -75.23 306.13 -74.23 320.31 -73.64 334.48 -73.51 348.66 -73.83 362.83 -74.6 377.01 -75.75 391.18 -77.21 405.36 -78.86 419.53 -80.6 433.71 -82.29 447.88 -83.81 462.06 -85.07 476.24 -85.96 490.41 -86.43 504.59 -86.44 518.76 -85.99 532.94 -85.11 547.11 -83.87 561.29 -82.35 575.46 -80.66 589.64 -78.93 603.81 -77.27 617.99 -75.8 632.16 -74.64 646.34 -73.85 660.52 -73.51 674.69 -73.63 688.87 -74.2 703.04 -75.18 717.22 -76.51 731.39 -78.09 745.57 -79.8 759.74 -81.53 773.92 -83.14 788.09 -84.54 802.27 -85.61 816.45 -86.27 830.62 -86.49 833.12 -72.15 839.48 -57.81 849.2 -43.46 861.46 -29.12 875.25 -14.78 889.44 -0.43 902.84 13.9 914.36 28.25 923.03 42.59 928.15 56.93 929.29 71.28 926.36 85.62 919.6 99.96 909.56 114.31 897.08 128.65 883.19 143 869.03 157.34 855.78 171.68 844.53 186.03 836.21 200.37 831.51 214.71 830.82 229.06 834.19 243.4 841.34 257.75 851.69 272.09 864.38 286.43 878.36 300.78 892.47 315.12 905.55 329.46 916.52 343.81 924.47 358.15 928.75 372.5 929 386.84 925.2 401.18 917.66 415.53 907.01 429.87 894.13 444.21 880.08 458.56 866.02 472.9 853.12 487.25 842.44 501.59 834.86 515.93 831.01 530.28 831.21 544.62 835.44 558.96 843.36 573.31 854.29 587.65 867.36 602 881.47 616.34 895.45 630.68 908.16 645.03 918.54 659.37 925.74 673.71 929.15 688.06 928.51 702.4 923.85 716.75 915.57 731.09 904.35 745.43 891.12 759.78 876.97 774.12 863.07 788.46 850.57 802.81 840.49 817.15 833.69 831.5 819.46 833.14 805.23 838.13 791.01 846.11 776.78 856.5 762.55 868.57 748.33 881.45 734.1 894.23 719.87 905.99 705.65 915.9 691.42 923.25 677.19 927.51 662.97 928.39 648.74 925.81 634.51 919.97 620.29 911.27 606.06 900.35 591.83 887.97 577.61 875.02 563.38 862.43 549.15 851.09 534.93 841.81 520.7 835.26 506.47 831.9 492.25 831.96 478.02 835.46 463.79 842.12 449.57 851.49 435.34 862.9 421.11 875.52 406.89 888.46 392.66 900.8 378.43 911.65 364.21 920.25 349.98 925.97 335.75 928.42 321.53 927.41 307.3 923.02 293.07 915.57 278.85 905.57 264.62 893.75 250.39 880.95 236.17 868.09 221.94 856.07 207.71 845.75 193.49 837.88 179.26 833.02 165.04 831.5 150.81 833.44 136.58 838.71 122.36 846.91 108.13 857.48 93.9 869.65 79.68 882.56 65.45 895.29 51.22 906.92 37 916.64 22.77 923.74 8.54 927.72 -5.67 928.3 -19.9 925.43 -34.13 919.33 -48.35 910.41 -62.58 899.33 -76.81 886.87 -77.28 871.78 -77.97 856.68 -78.83 841.59 -79.79 826.5 -80.76 811.4 -81.67 796.31 -82.44 781.22 -83.01 766.13 -83.33 751.03 -83.38 735.94 -83.14 720.85 -82.65 705.75 -81.93 690.66 -81.06 675.57 -80.1 660.47 -79.13 645.38 -78.23 630.29 -77.47 615.2 -76.93 600.1 -76.64 585.01 -76.62 569.92 -76.89 554.82 -77.41 539.73 -78.15 524.64 -79.03 509.54 -80 494.45 -80.97 479.36 -81.85 464.27 -82.59 449.17 -83.11 434.08 -83.37 418.99 -83.35 403.89 -83.06 388.8 -82.51 373.71 -81.75 358.61 -80.85 343.52 -79.88 328.43 -78.92 313.33 -78.05 298.24 -77.33 283.15 -76.84 268.06 -76.61 252.96 -76.66 237.87 -76.98 222.78 -77.55 207.68 -78.33 192.59 -79.24 177.5 -80.21 162.4 -81.17 147.31 -82.03 132.22 -82.72 117.13 -83.19 102.03 -83.39 86.94 -83.31 71.85 -82.96 56.75 -82.36 41.66 -81.57 26.57 -80.64 11.47 -79.67 -3.61 -78.72 -18.7 -77.88 -33.79 -77.21 -48.89 -76.77 -63.98 -76.6 -79.07" fill="url(#uuunion-grad)"></path><path d="M-76.6 -79.07Q-76.77 -63.98 -77.21 -48.89 -77.88 -33.79 -78.72 -18.7 -79.67 -3.61 -80.64 11.47 -81.57 26.57 -82.36 41.66 -82.96 56.75 -83.31 71.85 -83.39 86.94 -83.19 102.03 -82.72 117.13 -82.03 132.22 -81.17 147.31 -80.21 162.4 -79.24 177.5 -78.33 192.59 -77.55 207.68 -76.98 222.78 -76.66 237.87 -76.61 252.96 -76.84 268.06 -77.33 283.15 -78.05 298.24 -78.92 313.33 -79.88 328.43 -80.85 343.52 -81.75 358.61 -82.51 373.71 -83.06 388.8 -83.35 403.89 -72.81 408.67 -62.27 413.16 -51.72 417.24 -41.18 420.77 -30.64 423.64 -20.09 425.76 -0.33 427.38 3.08 427.48 16.18 420.07 29.21 411.39 42.14 401.59 54.94 390.86 67.61 379.45 80.11 367.62 92.44 355.65 104.59 343.83 116.55 332.44 128.31 321.71 139.89 311.85 151.3 303.02 162.55 295.33 173.65 288.82 184.64 283.48 195.55 279.24 206.39 275.96 217.21 273.49 228.04 271.62 238.93 270.11 249.9 268.72 261.01 267.22 272.28 265.36 283.75 262.95 295.46 259.8 307.43 255.78 319.7 250.81 332.29 244.84 345.21 237.89 358.48 230.02 372.09 221.33 386.06 211.98 400.36 202.13 414.99 191.96 429.93 181.7 445.14 171.54 460.59 161.66 476.25 152.24 492.07 143.43 507.99 135.33 523.97 128 539.95 121.49 555.86 115.77 571.66 110.79 587.27 106.47 602.64 102.68 617.71 99.29 632.43 96.13 646.74 93.04 660.61 89.87 673.98 86.47 686.83 82.69 699.14 78.44 710.88 73.63 722.05 68.2 732.65 62.16 742.68 55.51 752.18 48.29 761.16 40.59 769.66 32.49 777.74 24.12 785.44 15.58 792.84 7.01 800 -1.48 785.14 -18.86 771.94 -36.25 761.9 -53.64 756.13 -71.02 755.28 -88.41 759.44 -105.8 767.03 -131.36 751.35 -138.54 736.8 -137.65 722.25 -136.92 707.7 -136.41 693.15 -136.15 678.6 -136.16 664.05 -136.44 649.5 -136.97 634.95 -137.72 620.4 -138.62 605.85 -139.62 591.3 -140.65 576.75 -141.63 562.2 -142.5 547.65 -143.19 533.1 -143.65 518.55 -143.86 504 -143.8 489.45 -143.46 474.9 -142.89 460.35 -142.1 445.8 -141.18 431.25 -140.16 416.7 -139.14 402.15 -138.17 387.6 -137.34 373.05 -136.69 358.5 -136.27 343.95 -136.12 329.4 -136.24 314.84 -136.62 300.29 -137.24 285.74 -138.06 271.19 -139.01 256.64 -140.03 242.09 -141.05 227.54 -141.99 212.99 -142.8 198.44 -143.4 183.89 -143.77 169.34 -143.87 154.79 -143.69 140.24 -143.26 125.69 -142.6 111.14 -141.75 96.59 -140.78 82.04 -139.76 67.49 -138.75 52.94 -137.83 38.39 -137.06 23.84 -136.5 9.29 -136.18 -5.25 -136.14 -19.8 -136.36 -34.35 -136.84 -48.9 -137.55 -63.45 -138.42 -78 -139.41 -92.55 -140.44 -107.1 -141.43 -121.65 -142.33 -130.09 -130.06 -112.35 -112.57 -103.21 -104.4 -94.22 -96.09 -85.36 -87.64 -76.6 -79.07" fill="url(#uuunion-grad2)" filter="url(#uuunion-blur)"></path><path d="M844.41 395.92Q854.95 391.16 865.49 386.67 876.04 382.61 886.58 379.1 897.12 376.26 907.67 374.17 923.6 379.87 925.2 401.18 917.66 415.53 907.01 429.87 894.13 444.21 880.08 458.56 866.02 472.9 853.12 487.25 842.44 501.59 834.86 515.93 831.01 530.28 831.21 544.62 835.44 558.96 843.36 573.31 854.29 587.65 867.36 602 881.47 616.34 895.45 630.68 908.16 645.03 918.54 659.37 925.74 673.71 929.15 688.06 928.51 702.4 923.85 716.75 915.57 731.09 904.35 745.43 891.12 759.78 876.97 774.12 863.07 788.46 850.57 802.81 840.49 817.15 833.69 831.5 820.63 832.88 807.58 837.1 794.52 843.89 781.46 852.86 768.41 863.45 755.35 875.05 742.3 886.93 729.24 898.41 716.18 908.77 703.13 917.41 690.07 923.79 677.02 927.55 663.96 928.44 650.9 926.42 637.85 921.61 624.79 914.3 611.74 904.92 598.68 894.05 585.62 882.33 572.57 870.47 559.51 859.19 546.46 849.15 533.4 840.97 520.35 835.14 507.29 832 494.23 831.75 481.18 834.39 468.12 839.78 455.07 847.59 442.01 857.35 428.95 868.46 415.9 880.27 402.84 892.07 389.79 903.14 376.73 912.81 363.67 920.52 350.62 925.78 337.56 928.3 324.51 927.91 311.45 924.64 298.39 918.68 285.34 910.4 272.28 900.3 259.23 888.97 246.17 877.1 233.12 865.4 220.06 854.59 207 845.3 193.95 838.09 180.89 833.41 167.84 831.53 154.78 832.56 141.72 836.44 128.67 842.94 115.61 851.67 102.56 862.1 89.5 873.61 76.44 885.5 63.39 897.06 50.33 907.6 37.28 916.47 24.22 923.15 4.68 922.65 -1.69 907.61 -1.56 897.17 -1.4 886.74 -1.23 876.3 -1.05 865.86 -0.53 850.21 0.31 845 13.22 837.36 26.26 827.59 39.43 815.88 52.7 802.53 66.04 787.91 79.43 772.44 92.83 756.6 106.23 740.86 119.58 725.7 132.86 711.54 146.03 698.76 159.07 687.67 171.94 678.49 184.63 671.33 197.11 666.22 209.36 663.07 221.37 661.7 233.14 661.84 244.66 663.17 255.93 665.29 266.97 667.77 277.79 670.18 288.4 672.08 298.83 673.1 309.12 672.86 319.3 671.11 329.39 667.63 339.46 662.32 349.54 655.15 359.67 646.19 369.91 635.62 380.3 623.65 390.89 610.61 401.73 596.84 412.85 582.71 424.29 568.64 436.1 555 448.3 542.16 460.91 530.42 473.96 520.04 487.44 511.21 501.38 504.02 515.75 498.5 530.56 494.59 545.77 492.13 561.37 490.93 577.31 490.71 593.55 491.15 610.05 491.91 626.76 492.65 643.6 493 660.51 492.67 677.43 491.36 694.29 488.84 711.01 484.96 727.52 479.62 743.75 472.8 759.64 464.56 775.11 455.02 790.11 444.37 804.59 432.84 818.48 420.73 831.77 408.32 844.41 395.92 844.41 395.92 844.41 395.92" fill="url(#uuunion-grad3)" filter="url(#uuunion-blur2)"></path></svg>