<svg xmlns="http://www.w3.org/2000/svg" version="1.1" xmlns:xlink="http://www.w3.org/1999/xlink" xmlns:svgjs="http://svgjs.dev/svgjs" viewBox="0 0 800 800"><defs><filter id="uuunion-blur" x="-100%" y="-100%" width="400%" height="400%" color-interpolation-filters="sRGB">
        <feGaussianBlur in="SourceGraphic" stdDeviation="7.5 0" result="blur"></feGaussianBlur>
        <feDropShadow stdDeviation="12.307692307692308" in="blur" dx="10" dy="10" flood-color="hsl(265, 55%, 30%)" flood-opacity="0.25" x="0%" y="0%" width="100%" height="100%"></feDropShadow>
      </filter><filter id="uuunion-blur2" x="-100%" y="-100%" width="400%" height="400%" color-interpolation-filters="sRGB">
        <feGaussianBlur in="SourceGraphic" stdDeviation="7.5 0" result="blur"></feGaussianBlur>
        <feDropShadow stdDeviation="12.307692307692308" in="blur" dx="-10" dy="-10" flood-color="hsl(265, 55%, 30%)" flood-opacity="0.25" x="0%" y="0%" width="100%" height="100%"></feDropShadow>
      </filter><linearGradient gradientTransform="rotate(0, 0.5, 0.5)" x1="50%" y1="0%" x2="50%" y2="100%" id="uuunion-grad"><stop stop-color="hsl(265, 55%, 60%)" offset="10%"></stop><stop stop-color="hsl(265, 55%, 30%)" offset="90%"></stop></linearGradient><linearGradient gradientTransform="rotate(135, 0.5, 0.5)" x1="50%" y1="0%" x2="50%" y2="100%" id="uuunion-grad2"><stop stop-color="hsl(265, 55%, 60%)" offset="25%"></stop><stop stop-color="hsl(265, 55%, 30%)" offset="100%"></stop></linearGradient><linearGradient gradientTransform="rotate(333, 0.5, 0.5)" x1="50%" y1="0%" x2="50%" y2="100%" id="uuunion-grad3"><stop stop-color="hsl(265, 55%, 60%)" offset="0%"></stop><stop stop-color="hsl(265, 55%, 30%)" offset="75%"></stop></linearGradient></defs><path d="M-78.93 -83.26Q-64.31 -80.12 -49.69 -76.97 -35.07 -74.21 -20.46 -72.22 -5.84 -71.26 8.77 -71.46 23.39 -72.78 38 -75.06 52.62 -77.99 67.24 -81.19 81.85 -84.23 96.47 -86.71 111.09 -88.3 125.71 -88.79 140.32 -88.12 154.94 -86.37 169.56 -83.78 184.18 -80.68 198.79 -77.5 213.41 -74.65 228.03 -72.5 242.64 -71.35 257.26 -71.34 271.88 -72.47 286.5 -74.61 301.11 -77.45 315.73 -80.64 330.35 -83.73 344.97 -86.34 359.58 -88.1 374.2 -88.79 388.82 -88.32 403.44 -86.74 418.05 -84.27 432.67 -81.24 447.29 -78.04 461.9 -75.1 476.52 -72.81 491.14 -71.47 505.76 -71.25 520.37 -72.2 534.99 -74.18 549.61 -76.92 564.23 -80.08 578.84 -83.22 593.46 -85.93 608.08 -87.86 622.69 -88.75 637.31 -88.48 651.93 -87.09 666.55 -84.75 681.16 -81.79 695.78 -78.59 710.4 -75.58 725.02 -73.15 739.63 -71.62 754.25 -71.21 768.87 -71.96 783.48 -73.77 798.1 -76.4 812.72 -79.52 827.34 -82.69 841.95 -85.51 856.57 -87.6 858.7 -72.79 862.16 -57.99 866.72 -43.18 872.11 -28.38 877.99 -13.57 883.99 1.23 889.75 16.03 894.9 30.84 899.12 45.64 902.15 60.45 903.81 75.25 903.98 90.06 902.67 104.87 899.94 119.67 895.98 134.48 891.02 149.28 885.37 164.09 879.39 178.89 873.45 193.7 867.91 208.5 863.13 223.31 859.4 238.12 856.94 252.92 855.92 267.73 856.4 282.53 858.34 297.34 861.63 312.14 866.06 326.95 871.36 341.75 877.19 356.56 883.2 371.37 889.01 386.17 894.26 400.98 898.62 415.78 901.83 430.59 903.67 445.39 904.05 460.2 902.93 475.01 900.38 489.81 896.56 504.62 891.72 519.42 886.15 534.23 880.19 549.03 874.22 563.84 868.61 578.64 863.71 593.45 859.82 608.26 857.19 623.06 855.97 637.87 856.25 652.67 858 667.48 861.12 682.28 865.42 697.09 870.62 711.9 876.4 726.7 882.41 741.51 888.27 756.31 893.61 771.12 898.11 785.92 901.48 800.73 903.51 815.53 904.08 830.34 903.16 845.15 900.79 859.95 885.45 865.46 870.12 872.89 854.78 881.26 839.44 889.46 824.1 896.41 808.76 901.19 793.42 903.16 778.08 902.07 762.74 898.05 747.4 891.65 732.06 883.7 716.72 875.26 701.38 867.45 686.04 861.3 670.7 857.62 655.36 856.91 640.02 859.25 624.68 864.34 609.34 871.5 594 879.78 578.66 888.1 563.32 895.34 547.98 900.55 532.64 903.04 517.3 902.48 501.96 898.94 486.62 892.9 471.28 885.15 455.94 876.71 440.6 868.71 425.26 862.21 409.92 858.06 394.58 856.81 379.24 858.63 363.9 863.28 348.56 870.14 333.22 878.31 317.88 886.7 302.54 894.2 287.2 899.82 271.86 902.82 256.52 902.8 241.18 899.76 225.84 894.1 210.5 886.58 195.16 878.18 179.82 870.03 164.48 863.19 149.14 858.58 133.8 856.8 118.46 858.1 103.12 862.29 87.78 868.82 72.44 876.84 57.1 885.27 41.76 893 26.42 899.01 11.08 902.51 -4.25 903.02 -19.59 900.49 -34.92 895.24 -50.26 887.98 -65.6 879.66 -80.94 871.38 -81.05 856.46 -81.09 841.55 -81.07 826.63 -80.98 811.71 -80.82 796.8 -80.62 781.88 -80.37 766.97 -80.11 752.05 -79.83 737.13 -79.57 722.22 -79.33 707.3 -79.13 692.38 -78.99 677.47 -78.91 662.55 -78.9 647.63 -78.95 632.72 -79.07 617.8 -79.25 602.88 -79.48 587.97 -79.73 573.05 -80 558.13 -80.28 543.22 -80.53 528.3 -80.75 513.39 -80.93 498.47 -81.04 483.55 -81.09 468.64 -81.08 453.72 -80.99 438.8 -80.85 423.89 -80.65 408.97 -80.41 394.05 -80.14 379.14 -79.87 364.22 -79.6 349.3 -79.36 334.39 -79.16 319.47 -79.01 304.56 -78.92 289.64 -78.9 274.72 -78.94 259.81 -79.05 244.89 -79.23 229.97 -79.44 215.06 -79.7 200.14 -79.97 185.22 -80.24 170.31 -80.5 155.39 -80.72 140.47 -80.91 125.56 -81.03 110.64 -81.09 95.72 -81.08 80.81 -81.01 65.89 -80.87 50.98 -80.68 36.06 -80.44 21.14 -80.18 6.23 -79.9 -8.68 -79.64 -23.6 -79.39 -38.51 -79.18 -53.43 -79.02 -68.35 -78.93 -83.26" fill="url(#uuunion-grad)"></path><path d="M-78.93 -83.26Q-79.02 -68.35 -79.18 -53.43 -79.39 -38.51 -79.64 -23.6 -79.9 -8.68 -80.18 6.23 -80.44 21.14 -80.68 36.06 -80.87 50.98 -81.01 65.89 -81.08 80.81 -81.09 95.72 -81.03 110.64 -80.91 125.56 -80.72 140.47 -80.5 155.39 -80.24 170.31 -79.97 185.22 -79.7 200.14 -79.44 215.06 -79.23 229.97 -79.05 244.89 -78.94 259.81 -78.9 274.72 -78.92 289.64 -79.01 304.56 -79.16 319.47 -79.36 334.39 -79.6 349.3 -79.87 364.22 -80.14 379.14 -80.41 394.05 -70.31 397.82 -60.21 401.71 -50.11 405.5 -40.01 408.97 -29.92 411.9 -19.82 414.13 -0.89 415.87 2.38 415.98 14.83 408.67 27.22 400.02 39.54 390.25 51.78 379.7 63.96 368.77 76.08 357.9 88.13 347.5 100.14 337.95 112.1 329.54 124.03 322.45 135.93 316.75 147.82 312.36 159.7 309.11 171.59 306.69 183.51 304.76 195.45 302.9 207.45 300.73 219.5 297.86 231.62 294.01 243.83 288.96 256.12 282.61 268.51 275.01 281.01 266.28 293.62 256.67 306.35 246.49 319.2 236.12 332.18 225.93 345.27 216.28 358.49 207.47 371.82 199.73 385.25 193.17 398.79 187.81 412.42 183.55 426.13 180.19 439.9 177.45 453.73 175.01 467.59 172.51 481.46 169.61 495.34 166.02 509.2 161.49 523.03 155.89 536.79 149.17 550.49 141.39 564.08 132.71 577.57 123.37 590.92 113.65 604.13 103.89 617.18 94.39 630.05 85.46 642.74 77.33 655.23 70.15 667.52 64 679.6 58.85 691.47 54.59 703.13 51.01 714.59 47.86 725.84 44.86 736.9 41.69 747.78 38.09 758.49 33.82 769.05 28.71 779.47 22.67 789.78 15.7 800 7.88 793.67 -9.82 787.88 -27.53 783.11 -45.23 779.77 -62.94 778.13 -80.65 778.35 -98.35 780.39 -116.06 784.09 -133.77 769.46 -132.45 754.84 -132.11 740.22 -132.81 725.59 -134.44 710.97 -136.81 696.35 -139.58 681.72 -142.42 667.1 -144.93 652.48 -146.8 637.85 -147.78 623.23 -147.75 608.61 -146.69 593.98 -144.77 579.36 -142.22 564.74 -139.38 550.11 -136.62 535.49 -134.3 520.87 -132.72 506.24 -132.1 491.62 -132.51 477 -133.9 462.37 -136.08 447.75 -138.78 433.13 -141.63 418.5 -144.28 403.88 -146.36 389.26 -147.61 374.63 -147.86 360.01 -147.09 345.39 -145.39 330.76 -142.98 316.14 -140.19 301.52 -137.36 286.89 -134.89 272.27 -133.08 257.65 -132.17 243.02 -132.29 228.4 -133.42 213.78 -135.4 199.15 -137.99 184.53 -140.83 169.91 -143.57 155.28 -145.84 140.66 -147.35 126.04 -147.89 111.41 -147.41 96.79 -145.95 82.17 -143.71 67.54 -140.99 52.92 -138.14 38.3 -135.53 23.67 -133.5 9.05 -132.33 -5.56 -132.15 -20.19 -133 -34.81 -134.77 -49.43 -137.21 -64.06 -140.03 -78.68 -142.83 -93.3 -145.27 -107.93 -147.02 -122.55 -147.84 -131.97 -134.75 -114.99 -118 -105.93 -109.87 -96.91 -101.33 -87.91 -92.44 -78.93 -83.26" fill="url(#uuunion-grad2)" filter="url(#uuunion-blur)"></path><path d="M808.23 412.61Q818.32 409.86 828.42 406.52 838.52 402.8 848.62 398.92 858.72 395.09 868.82 391.56 878.91 388.53 889.01 386.17 894.26 400.98 898.62 415.78 901.83 430.59 903.67 445.39 904.05 460.2 902.93 475.01 900.38 489.81 896.56 504.62 891.72 519.42 886.15 534.23 880.19 549.03 874.22 563.84 868.61 578.64 863.71 593.45 859.82 608.26 857.19 623.06 855.97 637.87 856.25 652.67 858 667.48 861.12 682.28 865.42 697.09 870.62 711.9 876.4 726.7 882.41 741.51 888.27 756.31 893.61 771.12 898.11 785.92 901.48 800.73 903.51 815.53 904.08 830.34 903.16 845.15 900.79 859.95 886.72 864.92 872.64 871.57 858.56 879.16 844.48 886.85 830.41 893.77 816.33 899.15 802.25 902.39 788.17 903.13 774.1 901.29 760.02 897.07 745.94 890.94 731.86 883.59 717.79 875.84 703.71 868.55 689.63 862.54 675.55 858.48 661.48 856.82 647.4 857.75 633.32 861.16 619.24 866.68 605.17 873.68 591.09 881.39 577.01 888.94 562.93 895.5 548.86 900.32 534.78 902.87 520.7 902.87 506.63 900.31 492.55 895.49 478.47 888.93 464.39 881.38 450.32 873.67 436.24 866.67 422.16 861.16 408.08 857.75 394.01 856.82 379.93 858.48 365.85 862.55 351.77 868.56 337.7 875.85 323.62 883.6 309.54 890.95 295.46 897.08 281.39 901.3 267.31 903.14 253.23 902.39 239.15 899.14 225.08 893.76 211 886.84 196.92 879.15 182.84 871.56 168.77 864.91 154.69 859.95 140.61 857.22 126.53 857.04 112.46 859.42 98.38 864.1 84.3 870.55 70.22 878.06 56.15 885.78 42.07 892.86 27.99 898.5 6.91 897.56 -0.04 882.89 -0.02 872.74 -0.03 862.59 -0.07 852.44 -0.13 842.29 -0.01 827.07 0.69 822 13.31 814.64 25.87 805.38 38.37 794.5 50.79 782.44 63.14 769.74 75.42 757.02 87.62 744.85 99.75 733.78 111.82 724.24 123.83 716.52 135.79 710.75 147.7 706.85 159.58 704.6 171.43 703.61 183.27 703.39 195.1 703.38 206.95 703 218.82 701.71 230.72 699.08 242.68 694.77 254.69 688.63 266.78 680.67 278.96 671.05 291.24 660.1 303.62 648.27 316.11 636.07 328.73 624.06 341.47 612.77 354.34 602.65 367.34 594.05 380.48 587.16 393.74 582.03 407.13 578.54 420.63 576.42 434.25 575.27 447.97 574.62 461.78 573.95 475.67 572.75 489.61 570.55 503.6 567 517.62 561.86 531.64 555.05 545.66 546.63 559.64 536.82 573.57 525.96 587.43 514.49 601.2 502.89 614.86 491.65 628.39 481.24 641.77 472.01 654.98 464.24 668.02 458.05 680.87 453.41 693.52 450.17 705.95 448.02 718.17 446.58 730.17 445.4 741.94 444.01 753.5 441.97 764.84 438.9 775.97 434.51 786.9 428.66 802.94 416.96 808.23 412.61" fill="url(#uuunion-grad3)" filter="url(#uuunion-blur2)"></path></svg>